<svg width="42" height="26" viewBox="0 0 42 26" fill="none" xmlns="http://www.w3.org/2000/svg">
<path d="M21.083 0.364C26.0202 0.0306676 30.9497 1.11636 35.29 3.493C37.776 4.955 39.134 6.481 39.326 8.072C39.518 9.662 38.698 11.047 36.764 12.215C35.8466 12.7818 34.836 13.1813 33.779 13.395C32.91 13.6 32.019 13.69 31.127 13.664L30.153 13.587C30.244 13.804 30.304 14.033 30.333 14.267C30.3024 14.8206 30.1254 15.3562 29.82 15.819C29.3128 16.6793 28.5887 17.3914 27.72 17.884C25.6953 19.087 23.3746 19.7001 21.02 19.654C18.5835 19.7195 16.1762 19.1115 14.063 17.897C12.064 16.717 11.04 15.331 10.963 13.741C10.9705 12.8988 11.2147 12.0758 11.6678 11.3658C12.1208 10.6558 12.7644 10.0876 13.525 9.726C14.2548 9.27086 15.0495 8.9293 15.882 8.713C16.5458 8.52134 17.2291 8.40527 17.919 8.367H18.624L17.342 7.597L20.942 5.353L29.282 10.265C29.9197 10.6084 30.6327 10.7881 31.357 10.7881C32.0813 10.7881 32.7943 10.6084 33.432 10.265C35.201 9.162 34.569 7.713 31.537 5.917C28.3146 4.1427 24.6516 3.32827 20.981 3.57C17.0905 3.61773 13.2847 4.71203 9.96299 6.738C6.93999 8.628 5.441 10.881 5.467 13.498C5.467 16.062 7.06799 18.346 10.181 20.18C13.5787 22.0803 17.4375 22.9995 21.327 22.835C25.1992 22.8982 29.0131 21.8857 32.344 19.91C33.4971 19.2268 34.5312 18.3605 35.406 17.345C35.9909 16.7237 36.4284 15.9786 36.686 15.165L36.866 14.357L41.619 14.626C41.627 14.771 41.627 14.916 41.619 15.062C41.5321 15.4546 41.4164 15.8403 41.273 16.216C41.0666 16.8189 40.7914 17.396 40.453 17.936C39.9649 18.6627 39.3981 19.3335 38.763 19.936C37.9251 20.7444 37.0013 21.4587 36.008 22.066C33.1479 23.7829 29.9799 24.9243 26.682 25.426C23.0882 26.0536 19.4187 26.1184 15.805 25.618C12.5201 25.2308 9.34528 24.1929 6.466 22.565C4.14109 21.3341 2.27949 19.3805 1.16199 16.999C0.705289 15.96 0.469452 14.8374 0.469452 13.7025C0.469452 12.5676 0.705289 11.445 1.16199 10.406C2.26898 7.98095 4.11142 5.96601 6.42799 4.647C10.842 1.93406 15.9028 0.454662 21.083 0.363V0.364ZM25.746 13.626C25.576 12.735 24.976 11.986 24.145 11.625C23.1359 11.0303 21.9863 10.7158 20.815 10.714C19.7261 10.6727 18.6487 10.9489 17.714 11.509C17.3374 11.6928 17.0186 11.9768 16.7927 12.3297C16.5667 12.6827 16.4423 13.091 16.433 13.51C16.55 14.4 17.123 15.164 17.945 15.524C18.9771 16.1138 20.1505 16.4111 21.339 16.384C22.4816 16.4125 23.6093 16.119 24.593 15.537C24.9578 15.37 25.266 15.1003 25.48 14.7609C25.694 14.4215 25.8045 14.0272 25.798 13.626" fill="#3E2928"/>
</svg>
